<svg width="38" height="40" viewBox="0 0 38 40" fill="none" xmlns="http://www.w3.org/2000/svg">
<path d="M36.901 18.2451C36.6947 16.709 36.2973 15.2046 35.718 13.767C35.191 12.4908 34.3848 11.3489 33.3586 10.4252C32.8106 9.89432 32.1088 9.55041 31.3535 9.44265C30.3776 9.31262 29.3847 9.43931 28.4728 9.81024C27.7094 8.80337 26.7557 7.95633 25.6657 7.31723C24.7607 6.7787 23.7513 6.43921 22.7048 6.32136C22.5364 6.30337 22.3691 6.27659 22.2035 6.24114C22.4508 5.89358 22.6914 5.53266 22.9454 5.17842C23.3645 4.5955 23.8719 4.08138 24.4492 3.65454C24.757 3.42739 25.0914 3.23884 25.4451 3.09311C25.7067 2.98016 25.9987 2.95897 26.2739 3.03295C26.4343 3.07306 26.4677 3.13988 26.3674 3.27356C26.1077 3.60246 25.9106 3.97628 25.786 4.37639C25.722 4.58315 25.7014 4.8009 25.7256 5.01598C25.7497 5.23106 25.8181 5.43882 25.9263 5.62624C26.0045 5.78508 26.1267 5.91806 26.2784 6.00932C26.4301 6.10058 26.6049 6.14625 26.7818 6.14088C26.9309 6.1509 27.0806 6.1509 27.2297 6.14088C27.4546 6.11352 27.6677 6.02486 27.8457 5.88459C28.0237 5.74433 28.1597 5.55785 28.2389 5.34552C28.3933 5.00936 28.4414 4.6341 28.3769 4.26986C28.3125 3.90561 28.1384 3.56971 27.878 3.30699C27.7978 3.2201 27.6841 3.17331 27.644 3.00621C28.0414 2.66379 28.5092 2.4128 29.0142 2.271C29.146 2.24208 29.2835 2.25374 29.4086 2.30443C29.7085 2.40097 29.9974 2.52866 30.2707 2.68541C30.7655 2.96434 31.2331 3.28877 31.6676 3.65454C31.7144 3.69464 31.7679 3.76149 31.8347 3.72807C31.9016 3.69465 31.9149 3.5877 31.9083 3.50749C31.8828 3.24975 31.7611 3.01109 31.5674 2.83912C31.295 2.59216 30.989 2.38513 30.6584 2.22423C30.3069 2.03569 29.9143 1.93695 29.5155 1.93681C28.6898 1.91477 27.8775 2.14819 27.1896 2.60519C26.9947 2.74087 26.7569 2.80032 26.5212 2.77228C25.9959 2.73137 25.4677 2.7967 24.9682 2.96436C24.4686 3.13201 24.008 3.39857 23.6138 3.74812C22.9087 4.33614 22.3368 5.0675 21.9361 5.89359C21.803 5.33215 21.7247 4.75912 21.7022 4.18256C21.6868 3.29898 21.5838 2.41911 21.3948 1.55586C21.3505 1.32611 21.281 1.10196 21.1876 0.887483C21.1489 0.734814 21.08 0.591465 20.9848 0.465936C20.8897 0.340407 20.7704 0.235256 20.6339 0.156716C20.4974 0.0781758 20.3465 0.027847 20.1901 0.00871431C20.0338 -0.0104183 19.8752 0.00202724 19.7238 0.0453271C19.0554 0.118848 18.4405 0.24584 17.7989 0.359463C17.6378 0.393503 17.4809 0.445058 17.3311 0.513196C17.0303 0.646871 16.9835 0.77386 17.1305 1.05458C17.2776 1.33529 17.3244 1.4088 17.4179 1.58258C17.6297 1.97934 17.7742 2.40847 17.8457 2.8525C17.9369 3.37998 17.9549 3.91751 17.8992 4.4499C17.8551 4.77895 17.7813 5.10334 17.6786 5.41905C17.63 5.5767 17.5453 5.72087 17.4313 5.84013C17.4546 5.64911 17.4363 5.45532 17.3778 5.27201C17.1954 4.64506 16.8467 4.07919 16.3686 3.63449C15.928 3.22702 15.4113 2.91043 14.8482 2.70285C14.2851 2.49526 13.6866 2.40076 13.0869 2.42473C12.6026 2.42798 12.1238 2.52778 11.6785 2.71829C11.2332 2.90879 10.8304 3.18618 10.4936 3.53423C10.4376 3.60377 10.3661 3.65931 10.2849 3.69643C10.2037 3.73356 10.115 3.75126 10.0257 3.74812C9.23577 3.78653 8.48501 4.10388 7.90699 4.64373C7.81562 4.70706 7.74148 4.79218 7.69129 4.89138C7.64111 4.99058 7.61648 5.10073 7.6196 5.21186L7.9003 4.98461C8.42995 4.59376 9.01291 4.28089 9.63139 4.05556C9.80516 3.98873 9.97227 4.00209 9.999 4.05556C10.0257 4.10903 9.96559 4.23602 9.9188 4.32291C9.87202 4.4098 9.83859 4.46995 9.80517 4.55015C9.6886 4.78837 9.62045 5.04736 9.60467 5.31211C9.59059 5.49123 9.61551 5.67127 9.67771 5.83984C9.73991 6.00841 9.83791 6.16151 9.96496 6.28856C10.092 6.41561 10.2451 6.51361 10.4137 6.57581C10.5822 6.63801 10.7623 6.66293 10.9414 6.64885C11.1411 6.64215 11.339 6.60843 11.5296 6.5486C11.7712 6.47574 11.9782 6.31772 12.1121 6.10386C12.2461 5.89 12.298 5.63481 12.2581 5.38562C12.2345 5.17806 12.169 4.97746 12.0656 4.79594C11.9622 4.61442 11.823 4.45577 11.6566 4.3296C11.5382 4.23582 11.4131 4.15093 11.2823 4.07561C11.1954 4.02214 11.162 3.96198 11.2288 3.88178C11.6725 3.311 12.2971 2.908 13 2.73887C13.1297 2.70888 13.2646 2.70888 13.3943 2.73887C13.8343 2.83047 14.2535 3.00269 14.6308 3.24684C15.5875 3.85914 16.2975 4.78928 16.6359 5.87354C16.6827 5.99384 16.7095 6.12084 16.7562 6.23447C16.2178 6.46519 15.6612 6.65074 15.092 6.78921C14.4637 6.94962 13.8355 7.09666 13.2072 7.27043C12.1832 7.54245 11.2667 8.12079 10.5805 8.92801C10.0384 8.83764 9.48506 8.83764 8.94296 8.92801C7.73276 9.12296 6.61357 9.69073 5.74147 10.5521C5.15257 11.1194 4.64432 11.7649 4.23094 12.4704C3.47852 13.7413 2.85602 15.0849 2.37287 16.4806C1.84742 18.0465 1.46706 19.6574 1.23663 21.2929C0.979496 22.9372 0.878802 24.6023 0.93587 26.2656C0.975973 27.0476 1.04948 27.8296 1.14973 28.6049C1.36916 30.3087 1.81885 31.9748 2.48648 33.5575C3.13342 35.1303 4.03685 36.5848 5.15997 37.8618C5.54609 38.2961 5.99699 38.6681 6.49672 38.9647C6.75933 39.128 7.05379 39.2333 7.36039 39.2737C7.66699 39.314 7.97867 39.2884 8.27459 39.1986C9.11558 38.9596 9.86245 38.4672 10.4134 37.7883C10.7262 37.3741 10.9908 36.9257 11.2021 36.4516C11.2422 36.3647 11.2622 36.2511 11.4226 36.2645C11.4828 36.3647 11.5563 36.4717 11.6165 36.5853C11.8838 37.0531 12.1378 37.521 12.4118 37.9755C12.7688 38.5793 13.2494 39.1009 13.8221 39.5061C14.1519 39.7525 14.5382 39.9123 14.9458 39.9707C15.3533 40.0291 15.769 39.9842 16.1547 39.8402C17.1221 39.5421 17.9365 38.881 18.4272 37.9955C18.5007 37.8485 18.5876 37.7148 18.7012 37.521L18.8549 37.8284C18.9953 38.1292 19.1156 38.4433 19.2827 38.7307C19.4288 38.9901 19.6037 39.2323 19.804 39.4526C19.9841 39.6541 20.2232 39.7936 20.4873 39.8512C20.7513 39.9088 21.0268 39.8816 21.2744 39.7734C21.9202 39.5329 22.4758 39.0987 22.8652 38.5302C22.9989 38.3431 23.0991 38.1292 23.2194 37.9287C23.2595 37.8619 23.2862 37.775 23.4199 37.7883C23.5536 38.0757 23.6873 38.3832 23.8477 38.6706C24.0186 39.0062 24.2674 39.2959 24.5732 39.5157C24.879 39.7355 25.233 39.8788 25.6055 39.9338C26.1839 40.0322 26.7757 40.0208 27.35 39.9004C28.3188 39.6757 29.2297 39.2499 30.0234 38.6505C31.0709 37.8825 31.9757 36.937 32.6969 35.8567C33.5569 34.5653 34.2889 33.1931 34.8825 31.7596C35.6184 29.9895 36.152 28.142 36.4732 26.2522C36.6336 25.3833 36.7473 24.5078 36.8876 23.6389C36.9883 22.9748 37.0486 22.3052 37.0681 21.6338C37.1061 20.5015 37.0502 19.3681 36.901 18.2451ZM27.0626 3.64787C27.3278 3.95405 27.4738 4.34558 27.4738 4.75068C27.4738 5.15578 27.3278 5.5473 27.0626 5.85349C26.9322 5.75973 26.8248 5.63764 26.7484 5.49642C26.672 5.35519 26.6286 5.19848 26.6214 5.03807C26.5962 4.78851 26.6223 4.53642 26.6982 4.29733C26.774 4.05824 26.8981 3.83723 27.0626 3.64787ZM11.4093 5.61286C11.4268 5.75292 11.4034 5.89509 11.3417 6.02205C11.28 6.14901 11.1827 6.25531 11.0617 6.32803C10.9195 6.22751 10.8002 6.09793 10.7118 5.94787C10.6234 5.7978 10.5679 5.63065 10.5489 5.45752C10.53 5.28438 10.548 5.10919 10.6018 4.94355C10.6557 4.77791 10.7441 4.6256 10.8612 4.49669C11.0314 4.62882 11.1692 4.79803 11.2642 4.99144C11.3592 5.18486 11.4088 5.39739 11.4093 5.61286ZM12.3918 18.6929C12.6758 18.1846 13.0586 17.7382 13.5178 17.38C13.9769 17.0219 14.5031 16.7593 15.0653 16.6076C15.6988 16.4128 16.3786 16.4293 17.002 16.6548C17.6253 16.8803 18.1584 17.3024 18.5208 17.8575C18.9668 18.5049 19.2594 19.2455 19.3763 20.023C19.4508 20.3969 19.4822 20.7781 19.4698 21.1592C19.4731 22.2629 19.1996 23.3499 18.6745 24.3206C18.1488 25.2964 17.3007 26.0594 16.275 26.4795C15.7034 26.7458 15.0604 26.8181 14.4439 26.6854C13.8274 26.5526 13.2711 26.2222 12.8596 25.7443C12.3242 25.1673 11.9447 24.4634 11.7568 23.699C11.5161 22.8654 11.4482 21.9913 11.5574 21.1304C11.6666 20.2696 11.9505 19.4401 12.3918 18.6929ZM21.2076 21.7875C21.5725 21.0119 22.1965 20.3879 22.9721 20.023C23.3197 19.8659 23.6826 19.745 24.0549 19.6621C24.3326 19.6004 24.6207 19.6027 24.8974 19.6687C25.1741 19.7347 25.4323 19.8627 25.6523 20.043C26.0906 20.3853 26.4165 20.8508 26.588 21.3798C26.844 22.1133 26.9312 22.895 26.8432 23.6668C26.7553 24.4387 26.4944 25.1807 26.0801 25.8378C25.5339 26.7264 24.6759 27.3794 23.6739 27.6692C23.3007 27.7983 22.8972 27.8113 22.5165 27.7063C22.1358 27.6013 21.796 27.3832 21.5418 27.081C21.2019 26.7105 20.9566 26.2634 20.8266 25.7777C20.6786 25.3018 20.6064 24.8056 20.6128 24.3073C20.6221 23.4337 20.8253 22.573 21.2076 21.7875ZM33.3854 20.8986C33.249 23.0097 32.954 25.1076 32.5031 27.1746C32.2785 28.1323 31.9791 29.0709 31.6075 29.9817C30.977 31.6256 29.8719 33.0447 28.4327 34.0588L28.1921 34.2125C28.0584 34.1457 28.0985 34.0388 28.0785 33.9519C28.0206 33.522 27.929 33.0974 27.8044 32.682C27.7233 32.444 27.6085 32.219 27.4636 32.0136C27.416 31.9457 27.3515 31.8915 27.2764 31.8563C27.2014 31.8211 27.1184 31.8062 27.0358 31.8131C26.8002 31.81 26.569 31.877 26.3714 32.0055C26.1739 32.134 26.019 32.3182 25.9263 32.5349C25.8235 32.78 25.7473 33.0355 25.6991 33.2969C25.5934 33.8359 25.5176 34.3803 25.4718 34.9277C25.4718 35.2485 25.3983 35.2953 25.0842 35.322C23.5603 35.4691 22.0364 35.6094 20.5058 35.6228C19.9511 35.6228 19.403 35.6228 18.8549 35.6228C17.6519 35.6228 16.4555 35.5426 15.2591 35.4691C13.9797 35.3802 12.7085 35.197 11.4561 34.921C10.7877 34.7807 10.8746 34.921 10.8879 34.1925C10.8879 33.7647 10.9347 33.3303 10.9414 32.8958C10.9416 32.6473 10.9215 32.3992 10.8813 32.154C10.8278 31.8666 10.6741 31.773 10.3733 31.7863C10.1729 31.7992 9.97846 31.86 9.80635 31.9635C9.63424 32.067 9.48944 32.2102 9.38409 32.3812C9.27571 32.5478 9.18392 32.7247 9.11006 32.9092C8.9697 33.23 8.85608 33.5776 8.72241 33.885C8.66894 34.0321 8.60878 34.0655 8.46173 34.0254C8.32992 34.0026 8.20179 33.9621 8.08078 33.9051C7.75327 33.7447 7.41239 33.5843 7.10494 33.3971C6.81052 33.2074 6.55806 32.9595 6.36305 32.6686C6.01952 32.1751 5.73887 31.6408 5.52759 31.0779C4.99958 29.6449 4.6276 28.1592 4.41809 26.6466C4.21878 25.2098 4.15612 23.7574 4.23094 22.3088C4.26949 20.9264 4.46001 19.5524 4.79906 18.2117C4.83248 18.1048 4.8659 17.9911 4.90601 17.8775C4.96006 17.7372 5.05043 17.6137 5.16786 17.5197C5.2853 17.4258 5.42559 17.3647 5.57438 17.3428C5.59851 17.3344 5.62407 17.3308 5.64958 17.3323C5.6751 17.3338 5.70007 17.3403 5.72305 17.3515C5.74604 17.3627 5.76659 17.3783 5.78351 17.3975C5.80044 17.4166 5.81341 17.4389 5.82167 17.4631C5.9252 17.7269 5.99264 18.0034 6.02218 18.2852C6.12243 18.9536 6.20932 19.622 6.32962 20.2903C6.66928 22.5137 7.3078 24.681 8.22782 26.7334C8.5483 27.4491 8.93779 28.1319 9.39078 28.772C9.48435 28.8923 9.57125 29.0126 9.66482 29.1262C10.5671 30.1422 10.654 30.0954 11.8103 30.3293C12.6111 30.4895 13.4216 30.5967 14.2365 30.6501L14.4838 30.6835C14.55 30.6817 14.6144 30.7058 14.6631 30.7508C14.7118 30.7958 14.741 30.858 14.7445 30.9242C14.8545 31.5293 15.0155 32.124 15.2257 32.702C15.3059 32.9312 15.4019 33.1545 15.5131 33.3704C15.747 33.8115 15.9876 33.885 16.4622 33.7313C16.6533 33.6716 16.8278 33.5679 16.9717 33.4286C17.1157 33.2894 17.225 33.1184 17.291 32.9293C17.4439 32.4951 17.5558 32.0476 17.6251 31.5925C17.6251 31.3787 17.692 31.1648 17.7321 30.9242C17.7368 30.8916 17.7527 30.8618 17.7771 30.8398C17.8015 30.8178 17.8329 30.8051 17.8657 30.8038C18.1231 30.7712 18.3837 30.7712 18.6411 30.8038C18.6411 31.0846 18.6945 31.3653 18.7146 31.646C18.7606 32.2272 18.8636 32.8026 19.022 33.3637C19.076 33.5909 19.1837 33.8018 19.3362 33.9786C19.3879 34.0448 19.4578 34.0945 19.5373 34.1218C19.6168 34.1491 19.7025 34.1528 19.784 34.1323C20.1626 34.0615 20.5012 33.8518 20.7331 33.5442C21.011 33.1284 21.2356 32.6793 21.4014 32.2074C21.5618 31.7863 21.7289 31.372 21.8626 30.9442C21.8772 30.8545 21.9239 30.7732 21.994 30.7154C22.0641 30.6576 22.1528 30.6273 22.2436 30.6301C22.9521 30.5766 23.6605 30.4763 24.369 30.356C25.6191 30.1217 26.8181 29.6692 27.9114 29.0193C28.1353 28.8744 28.3358 28.6964 28.5062 28.4913C29.4602 27.4629 30.2108 26.2632 30.7186 24.9556C31.2808 23.5308 31.7409 22.0678 32.0954 20.5777C32.1489 20.3705 32.2157 20.1634 32.2625 19.9562C32.2814 19.8658 32.3262 19.7828 32.3915 19.7175C32.4568 19.6522 32.5397 19.6074 32.6301 19.5885C32.6758 19.5699 32.7227 19.5543 32.7705 19.5418C33.2784 19.4616 33.3453 19.4816 33.3787 19.9762C33.4124 20.2826 33.4146 20.5917 33.3854 20.8986Z" fill="#72ED2F"/>
</svg>
