<svg width="35" height="40" viewBox="0 0 35 40" fill="none" xmlns="http://www.w3.org/2000/svg">
<path d="M34.6149 24.673C34.5371 23.3869 34.3816 22.1066 34.1494 20.8393C33.9105 19.4231 33.5226 18.0362 32.9921 16.7016C32.6825 15.8882 32.2603 15.1221 31.7379 14.4259C31.3974 13.9726 30.9713 13.5904 30.4837 13.301C30.127 13.0786 29.7194 12.9511 29.2996 12.9307C28.8797 12.9104 28.4617 12.9978 28.0852 13.1846C27.8136 12.6866 27.4619 12.2367 27.0443 11.8529C26.3153 11.1909 25.4943 10.6378 24.607 10.2107C23.9031 9.85181 23.1672 9.5596 22.4089 9.33794L22.5446 9.22158C23.0275 8.74679 23.4449 8.20977 23.7859 7.62471C24.148 7.017 24.5035 6.40282 24.8785 5.80804C25.234 5.25529 25.6698 4.75851 26.1715 4.33401C26.3419 4.16956 26.5644 4.06984 26.8005 4.05213C27.0366 4.03442 27.2715 4.09984 27.4645 4.23704C27.6914 4.3628 27.8913 4.53194 28.0528 4.73484C28.2804 5.02736 28.4494 5.36101 28.5506 5.71752C28.6088 5.91147 28.5507 5.95027 28.3502 5.98906C28.2524 5.99781 28.1552 6.01293 28.0593 6.03432C27.6458 6.11191 27.2702 6.32586 26.9926 6.64201C26.8842 6.76239 26.8155 6.91322 26.7958 7.07399C26.7762 7.23477 26.8065 7.39771 26.8827 7.54066C26.9568 7.68662 27.0763 7.8046 27.2231 7.87688C27.37 7.94915 27.5364 7.97182 27.6973 7.94149C28.1908 7.90912 28.6533 7.68943 28.9903 7.32732C29.0485 7.25621 29.0937 7.15923 29.2359 7.17862C29.5541 7.99919 29.8197 8.83918 30.0311 9.69351C30.2095 9.45999 30.303 9.17269 30.2962 8.87893C30.2933 8.23238 30.1952 7.58976 30.0053 6.97174C29.9628 6.79865 29.868 6.64287 29.7337 6.52565C29.6495 6.46438 29.5854 6.37936 29.5497 6.28147C29.514 6.18358 29.5083 6.07726 29.5333 5.97611C29.543 5.89667 29.543 5.81635 29.5333 5.73691C29.5337 5.458 29.4773 5.18195 29.3676 4.92552C29.2578 4.6691 29.0971 4.43768 28.8951 4.24536C28.6931 4.05304 28.4541 3.90382 28.1926 3.80681C27.9311 3.70979 27.6526 3.667 27.374 3.68103C26.5421 3.7042 25.7479 4.03337 25.1436 4.60553C24.7538 4.96722 24.4126 5.37796 24.1286 5.82743C23.7277 6.47393 23.3722 7.12043 23.0166 7.79926C22.7571 8.28009 22.4518 8.73476 22.105 9.15692C22.0454 9.10806 21.9951 9.04895 21.9563 8.98237C21.6622 8.51907 21.4153 8.0274 21.2193 7.5148C21.0835 7.15275 20.9542 6.79072 20.8249 6.42867C20.684 5.99819 20.4884 5.58756 20.2431 5.20679C19.9411 4.68687 19.4859 4.27299 18.9396 4.02184C18.3933 3.7707 17.7828 3.69456 17.1916 3.80387C16.8942 3.84912 16.5903 3.91378 16.2929 3.97197C15.7253 4.0925 15.1406 4.11001 14.5668 4.02368C13.9664 3.93884 13.3917 3.7243 12.8826 3.39495C12.3735 3.0656 11.9422 2.62933 11.6187 2.11648C11.4054 1.77384 11.2243 1.4118 11.0175 1.06915C10.8106 0.726503 10.6425 0.467904 10.4356 0.183443C10.4033 0.134296 10.3607 0.0927441 10.3107 0.0616311C10.2608 0.0305181 10.2047 0.0105837 10.1464 0.00321135C10.088 -0.00416104 10.0287 0.00119572 9.97265 0.0189162C9.91656 0.0366367 9.86496 0.0663022 9.82143 0.105865L9.75032 0.164048C9.39941 0.520711 9.08932 0.915362 8.8258 1.34069C8.72122 1.52502 8.67819 1.73792 8.70297 1.94841C8.7212 2.12366 8.75584 2.29681 8.80641 2.4656C9.16954 3.59755 9.90567 4.57298 10.8946 5.23264C11.5954 5.75125 12.3902 6.1289 13.235 6.34463C13.7069 6.461 14.1724 6.57738 14.6443 6.68082L15.9373 6.97821C16.1785 7.00782 16.4044 7.11175 16.5839 7.27559C16.5492 7.49173 16.4577 7.69477 16.3188 7.86391C16.1442 8.11605 15.9438 8.34879 15.7822 8.60739C15.7327 8.68129 15.6741 8.74863 15.6076 8.8078C15.3585 8.59776 15.0768 8.42964 14.7736 8.31C14.0898 8.05931 13.3536 7.9859 12.6337 8.09665C12.1249 8.16802 11.6199 8.26513 11.1209 8.38758C10.8546 8.45118 10.5848 8.49868 10.3128 8.52981C9.60688 8.61655 8.89061 8.51391 8.23748 8.23243C8.21807 8.20108 8.19013 8.17591 8.15693 8.15988C8.12372 8.14385 8.08663 8.13761 8.05001 8.14191C8.03298 8.10988 8.00639 8.08396 7.97395 8.06774C7.94151 8.05152 7.90483 8.04582 7.86899 8.05141C7.85152 8.01938 7.82508 7.99314 7.79293 7.97592C7.76078 7.95869 7.72431 7.95124 7.68797 7.95443C7.25612 7.71069 6.86013 7.40826 6.51133 7.05578C6.66127 7.44597 6.94868 7.76787 7.31946 7.96089C7.85686 8.36958 8.45444 8.69237 9.09087 8.91772C9.29019 8.98216 9.49629 9.02338 9.70506 9.04056C10.362 9.10416 11.0242 9.08678 11.6769 8.98882C12.3807 8.90908 13.0895 8.88099 13.7974 8.90478C14.1312 8.91497 14.4619 8.97155 14.7801 9.07287C14.0589 9.19171 13.3509 9.38007 12.666 9.63533C11.2997 10.1376 10.058 10.9293 9.02622 11.9563C8.9027 12.088 8.78619 12.2261 8.67712 12.37C8.61247 12.3377 8.55429 12.2925 8.4961 12.2601C8.25755 12.1214 7.99386 12.0313 7.72029 11.9951C7.12601 11.9242 6.52339 11.9951 5.96179 12.202C5.11738 12.5322 4.36859 13.0677 3.78308 13.76C3.30285 14.3057 2.89639 14.9122 2.57412 15.5638C2.28319 16.1586 2.00518 16.7598 1.75305 17.3675C1.34942 18.404 1.01679 19.4667 0.757445 20.5483C0.458458 21.7206 0.312848 22.9267 0.324278 24.1364C0.323564 25.6541 0.459887 27.1688 0.731579 28.662C1.00961 30.1219 1.52039 31.5276 2.2444 32.8254C2.9509 34.0723 3.89284 35.1702 5.0179 36.0579C5.57061 36.528 6.1658 36.9458 6.79579 37.3057C8.09462 38.0245 9.47221 38.5907 10.9011 38.9931C11.8752 39.2775 12.8635 39.5106 13.8621 39.6913C14.9334 39.8457 16.0127 39.9385 17.0946 39.9693C17.476 39.9693 17.8704 39.9693 18.2518 39.9693C19.0879 40.0233 19.9271 40.006 20.7603 39.9176C22.2569 39.8 23.737 39.5248 25.1759 39.0965C27.3077 38.4786 29.2887 37.4264 30.9944 36.0062C31.7436 35.3932 32.3821 34.6563 32.8822 33.8275C33.5002 32.747 33.9493 31.5785 34.214 30.3622C34.4101 29.4996 34.5483 28.6249 34.6278 27.7439C34.6966 26.7213 34.6923 25.695 34.6149 24.673ZM28.4731 7.00407C28.424 7.12479 28.3656 7.2415 28.2985 7.35317C28.1498 7.59884 28.0399 7.66996 27.7878 7.35317C27.6774 7.21271 27.6218 7.03694 27.6313 6.85857C27.6408 6.68019 27.7148 6.51134 27.8395 6.38341C27.8615 6.35686 27.8892 6.33555 27.9205 6.32101C27.9518 6.30647 27.986 6.29907 28.0205 6.29937C28.0635 6.29445 28.1069 6.29445 28.1498 6.29937C28.6606 6.48685 28.667 6.46747 28.4731 6.97821V7.00407ZM18.6268 25.8691L18.685 25.7333C19.3116 24.6195 20.2573 23.7189 21.4003 23.1473C21.7923 22.9609 22.2077 22.8283 22.6351 22.7529C23.6954 22.5654 24.7686 22.4296 25.8224 22.184C26.249 22.1 26.67 21.9899 27.0831 21.8543C28.1205 21.4834 29.0447 20.8509 29.7661 20.0182C29.8695 19.9018 29.9665 19.7725 30.0764 19.6561C30.1165 19.6046 30.172 19.5674 30.2349 19.5499C30.2978 19.5325 30.3646 19.5357 30.4255 19.5592C30.4866 19.583 30.5381 19.6263 30.572 19.6825C30.6059 19.7386 30.6203 19.8043 30.613 19.8695C30.6119 20.0316 30.6011 20.1935 30.5807 20.3544C30.4048 21.9009 30.0423 23.4205 29.501 24.8799C29.244 25.5222 28.9482 26.1483 28.6153 26.7548C28.1818 27.5332 27.5892 28.2116 26.8762 28.746C26.3426 29.1331 25.7681 29.4605 25.163 29.7222C24.6284 29.9525 24.0511 30.0671 23.4691 30.0584C23.127 30.0609 22.788 29.9927 22.4735 29.858C21.7813 29.5927 21.1287 29.2338 20.534 28.7912C19.7264 28.1205 19.0773 27.2794 18.6333 26.3281C18.5856 26.2565 18.5596 26.1726 18.5584 26.0866C18.5573 26.0005 18.581 25.916 18.6268 25.8432V25.8691ZM5.69673 16.5271C5.79902 16.5016 5.90638 16.505 6.00684 16.5369C6.1073 16.5689 6.1969 16.6282 6.26565 16.7081C6.34779 16.7315 6.42781 16.7618 6.50486 16.7986C7.06764 17.074 7.60995 17.3895 8.12759 17.7425C9.09534 18.438 10.0095 19.2052 10.8623 20.0376L11.5088 20.6259C12.5812 21.604 13.5066 22.732 14.2564 23.9748C14.4536 24.3054 14.6141 24.6566 14.7349 25.0221C14.7995 25.2032 14.793 25.229 14.6314 25.3518C13.84 25.9803 12.9708 26.504 12.0454 26.9099C11.8514 26.9875 11.6575 27.0651 11.47 27.1556C10.9944 27.3938 10.4697 27.5178 9.93779 27.5176C9.7697 27.5176 9.60809 27.5176 9.44646 27.5176H9.41412C8.6593 27.5459 7.91391 27.3424 7.27822 26.9344C6.64253 26.5264 6.14702 25.9335 5.85835 25.2355C5.61313 24.6546 5.47093 24.0355 5.43813 23.4059C5.39927 22.505 5.44472 21.6024 5.57389 20.7099C5.645 20.1863 5.68381 19.6497 5.70967 19.1196C5.73143 18.5079 5.65503 17.8968 5.48339 17.3093C5.45106 17.1865 5.41226 17.0572 5.39287 16.9344C5.38256 16.8867 5.38197 16.8375 5.39113 16.7897C5.40029 16.7418 5.41899 16.6963 5.44616 16.6559C5.47332 16.6154 5.50837 16.5809 5.54921 16.5543C5.59004 16.5277 5.63582 16.5097 5.6838 16.5012L5.69673 16.5271ZM32.9986 25.0674C32.9235 26.2594 32.7242 27.4403 32.4038 28.5908C32.1314 29.5865 31.7131 30.5364 31.1625 31.4096C30.3339 32.7812 29.2339 33.9691 27.93 34.9007C26.8328 35.6669 25.4857 35.9881 24.1609 35.7993C23.6184 35.7135 23.0979 35.5224 22.6287 35.2369L22.3442 35.0494C22.3054 35.0494 22.2537 35.0106 22.2214 35.0494C22.2134 35.0632 22.2093 35.0788 22.2093 35.0947C22.2093 35.1105 22.2134 35.1262 22.2214 35.1399C22.2796 35.3403 22.3377 35.5407 22.4089 35.7347C22.564 36.1743 22.7256 36.6139 22.8873 37.0277C22.8873 37.0859 22.9325 37.1506 22.9454 37.2087C22.9584 37.2669 22.8291 37.4415 22.7321 37.3898C22.6003 37.3314 22.4747 37.2599 22.3571 37.1764C21.467 36.5916 20.6508 35.9013 19.9263 35.1205C19.7408 34.92 19.5421 34.7321 19.3315 34.5581C19.2216 34.4611 19.1246 34.4999 19.0988 34.655C19.0729 34.8102 19.047 34.9718 19.0276 35.1334C18.9028 35.8962 18.8745 36.6717 18.9436 37.4415C18.9436 37.5061 18.9436 37.5708 18.8983 37.616C18.8701 37.6331 18.8376 37.6422 18.8046 37.6422C18.7715 37.6422 18.7391 37.6331 18.7109 37.616C18.3836 37.4092 18.0875 37.1566 17.8316 36.8661C17.3169 36.3079 16.8818 35.6814 16.5386 35.0042C16.4427 34.6824 16.2721 34.3877 16.0408 34.1443C15.7834 34.3387 15.5433 34.555 15.3232 34.7908C14.806 35.2498 14.3017 35.7282 13.778 36.1808C13.4839 36.4562 13.1558 36.693 12.8018 36.8855C12.6854 36.9437 12.6143 36.8855 12.6143 36.7627C12.6143 35.8446 12.6143 34.9266 12.6143 34.0085V33.6853C12.4721 33.5948 12.388 33.6853 12.2975 33.7435C11.0798 34.3682 9.82043 34.9082 8.52842 35.3597C8.28275 35.4416 8.03706 35.5192 7.79139 35.5925C7.7213 35.6149 7.64743 35.623 7.57413 35.6164C7.50083 35.6097 7.42962 35.5884 7.36472 35.5537C7.22249 35.4761 7.19015 35.392 7.2742 35.2498C7.59098 34.7455 7.9207 34.2413 8.22456 33.737C8.27628 33.6594 8.36032 33.5883 8.34093 33.4784C8.32153 33.3685 8.20517 33.4267 8.13406 33.4331C7.40979 33.5157 6.67672 33.3993 6.01372 33.0962C5.35073 32.7932 4.78292 32.3151 4.3714 31.7135C3.77821 30.8857 3.38436 29.9321 3.22062 28.927C3.10244 28.2871 3.0397 27.6382 3.03313 26.9875C2.99434 25.6945 2.94909 24.3498 2.85211 23.0309C2.75804 21.9715 2.6048 20.9182 2.3931 19.8759C2.34569 19.6691 2.30688 19.4536 2.27671 19.2294C2.26521 19.1907 2.26804 19.1492 2.28466 19.1124C2.30128 19.0756 2.33059 19.046 2.36723 19.029C2.43188 19.029 2.49653 18.9708 2.54178 19.029C2.61465 19.1339 2.67538 19.2467 2.7228 19.3652C3.11616 20.3374 3.41074 21.3468 3.60206 22.3779C3.74429 23.1667 3.86066 23.9683 3.98349 24.7635C4.18552 26.1383 4.62292 27.468 5.2765 28.6943C5.58418 29.2615 5.97416 29.78 6.43375 30.233C6.57174 30.3692 6.73693 30.4747 6.91853 30.5427C7.10013 30.6106 7.29404 30.6395 7.48755 30.6273C7.92637 30.6022 8.36054 30.5241 8.78056 30.3946C9.53674 30.168 10.262 29.8488 10.9399 29.4442C11.4711 29.1407 11.9771 28.7947 12.4527 28.4098C12.5133 28.3552 12.5781 28.3054 12.6466 28.2611C12.679 28.2389 12.7173 28.227 12.7566 28.227C12.7958 28.227 12.8341 28.2389 12.8665 28.2611C12.9038 28.2757 12.9344 28.3036 12.9523 28.3394C12.9702 28.3753 12.9742 28.4165 12.9634 28.4551C12.9303 28.5635 12.8893 28.6694 12.8406 28.7719C12.6188 29.3103 12.3229 29.8152 11.9614 30.2717C11.8937 30.3608 11.8311 30.4536 11.7739 30.5497C11.7739 30.5885 11.7092 30.6402 11.7221 30.6661C11.7351 30.692 11.7997 30.6984 11.845 30.6661L11.9226 30.6144C12.2405 30.5032 12.5426 30.3511 12.8212 30.1618C13.2285 29.9032 13.6293 29.6317 14.0302 29.3666L15.5171 28.3904C15.6788 28.287 15.7757 28.3193 15.8662 28.4939C15.9568 28.6684 15.9632 28.7007 16.0085 28.8042C16.4562 29.881 17.0153 30.908 17.6764 31.8686C17.5634 31.3886 17.492 30.8998 17.4631 30.4075C17.4415 29.8441 17.4849 29.2801 17.5924 28.7266C17.5924 28.6684 17.5924 28.5908 17.67 28.565C17.7476 28.5391 17.8187 28.6102 17.8639 28.6684C17.9092 28.7266 18.0644 28.9205 18.1549 29.0498C18.7116 29.8615 19.3484 30.6152 20.0556 31.2997C20.2723 31.552 20.5079 31.7876 20.7603 32.0044C20.8086 31.8662 20.8086 31.7158 20.7603 31.5777C20.628 31.129 20.5308 30.6708 20.4693 30.2071C20.4693 30.0455 20.353 29.8774 20.4693 29.7157C20.6374 29.7481 20.7279 29.8903 20.8508 29.9873C21.3094 30.3706 21.8452 30.6506 22.4218 30.8083C22.7383 30.8761 23.0614 30.9086 23.3851 30.9053C23.9971 30.9084 24.6079 30.85 25.2082 30.7308C26.0481 30.5632 26.8474 30.2339 27.5615 29.761C29.0442 28.8047 30.2625 27.4907 31.1043 25.9402C31.5984 24.9974 32.0303 24.0235 32.3974 23.0244C32.4316 22.9185 32.4726 22.8148 32.5202 22.7141C32.5848 22.5913 32.6042 22.3844 32.7659 22.4103C32.9275 22.4361 32.9404 22.6171 32.9857 22.7529C33.0397 22.9223 33.068 23.0988 33.0697 23.2766C33.0771 23.866 33.049 24.4554 32.9857 25.0415L32.9986 25.0674Z" fill="#72ED2F"/>
</svg>
