<svg width="35" height="40" viewBox="0 0 35 40" fill="none" xmlns="http://www.w3.org/2000/svg">
<path d="M34.4791 21.6803C34.4066 20.698 34.3275 19.7026 34.1627 18.7466C33.8728 17.0408 33.319 15.3904 32.5212 13.855C32.1777 13.1973 31.7176 12.6075 31.1631 12.1145C30.77 11.7342 30.2577 11.5013 29.7127 11.4553C29.435 11.4441 29.1568 11.4596 28.882 11.5014C28.1464 11.5613 27.4511 11.8626 26.9043 12.3585C26.8222 12.4209 26.7364 12.4781 26.6472 12.5299L26.5681 12.4903C26.5087 12.4178 26.4362 12.3453 26.3835 12.2662C26.2232 12.0148 25.9933 11.8155 25.7217 11.6926C25.4501 11.5697 25.1486 11.5285 24.854 11.5739C24.5226 11.6007 24.1953 11.6648 23.8783 11.7651C23.8783 11.6464 23.8322 11.5278 23.8058 11.4091C23.7318 11.0219 23.5688 10.6571 23.3296 10.3437C23.0905 10.0302 22.7819 9.77653 22.428 9.60276C22.428 9.47091 22.4741 9.34566 22.5005 9.2204C22.6341 8.49319 22.8834 7.79209 23.2388 7.14375C23.5371 6.6285 23.9794 6.2115 24.5112 5.9439C24.6673 5.85125 24.844 5.79911 25.0254 5.79226C25.049 5.79045 25.0727 5.79472 25.0942 5.80467C25.1157 5.81463 25.1343 5.82992 25.1481 5.8491C25.162 5.86828 25.1708 5.8907 25.1735 5.91422C25.1763 5.93774 25.173 5.96158 25.1639 5.98345C25.1143 6.08652 25.0703 6.19216 25.032 6.2999C24.8888 6.67017 24.8658 7.07607 24.9661 7.46018C25.1243 8.04691 25.3748 8.21173 25.9682 8.11943H26.067C26.244 8.08857 26.4054 7.99889 26.525 7.86489C26.6447 7.73088 26.7156 7.5604 26.7263 7.38107C26.7698 7.10264 26.7349 6.81759 26.6254 6.55791C26.516 6.29822 26.3363 6.0742 26.1066 5.91094C25.889 5.75272 25.889 5.73952 26.0275 5.52856C26.1659 5.3176 26.4494 4.94183 26.6867 4.65176C26.7988 4.49354 26.9241 4.33531 27.1152 4.09139C26.7924 4.17655 26.4985 4.34739 26.2648 4.58583C25.9955 4.85303 25.7567 5.14931 25.5528 5.46923C25.5174 5.53278 25.4643 5.58468 25.3999 5.61862C25.3355 5.65255 25.2627 5.66708 25.1902 5.66042C24.9684 5.64651 24.7457 5.66878 24.531 5.72635C24.1406 5.82723 23.7752 6.00749 23.4576 6.2559C23.14 6.50431 22.877 6.81552 22.6851 7.1701C22.3503 7.78824 22.1167 8.45593 21.9928 9.14787C21.9928 9.24676 21.9928 9.33907 21.9467 9.43137C21.6566 9.33907 21.3534 9.25337 21.0501 9.18744C20.5425 9.07537 20.0217 8.98967 19.5074 8.87759C19.2504 8.82376 18.9988 8.74652 18.7559 8.64685C18.5978 8.59512 18.465 8.48552 18.3843 8.34002C18.3036 8.19451 18.2809 8.02387 18.3208 7.86233C18.3506 7.68386 18.4061 7.51066 18.4856 7.34811C18.799 6.671 19.2477 6.06522 19.8041 5.56812C20.763 4.65979 21.9461 4.02274 23.2322 3.72221C23.5025 3.65628 23.7662 3.56399 24.0365 3.47829C24.1241 3.45455 24.2011 3.40189 24.2549 3.32888C24.3088 3.25588 24.3364 3.1668 24.3332 3.07613C24.3431 2.94447 24.3431 2.81224 24.3332 2.68057C24.3332 2.3048 24.2805 1.92244 24.2343 1.55325C24.1882 1.18407 24.142 0.893998 24.0959 0.524815C24.0846 0.409929 24.0359 0.301931 23.9573 0.217379C23.8787 0.132827 23.7745 0.0763969 23.6608 0.0567494C23.3555 -0.0189165 23.0364 -0.0189165 22.7312 0.0567494C21.7771 0.226614 20.8473 0.512187 19.9623 0.907175C19.016 1.34155 18.1951 2.00832 17.5758 2.84539C16.8921 3.7311 16.3474 4.71594 15.9607 5.76591C15.8552 6.06257 15.7431 6.35263 15.631 6.64271C15.3325 7.48302 14.8106 8.22605 14.1213 8.79189C13.8576 9.00944 13.5939 9.2138 13.3236 9.40499C13.0039 9.21521 12.7035 8.99439 12.427 8.74573C12.1238 8.46885 11.8271 8.18537 11.5305 7.90189C11.2759 7.64619 11.0002 7.41242 10.7064 7.20308C10.1792 6.83785 9.57971 6.59001 8.9485 6.47628C8.3173 6.36255 7.66905 6.38558 7.04751 6.54382C6.65998 6.62533 6.29994 6.80521 6.00205 7.06615C5.70417 7.32709 5.47846 7.66032 5.34664 8.03375C5.1883 8.37767 5.12894 8.75891 5.17523 9.13469C5.17828 9.15923 5.18987 9.1819 5.20794 9.19877C5.22602 9.21564 5.24943 9.22564 5.27411 9.227C5.29051 9.22501 5.30622 9.2192 5.31996 9.21004C5.3337 9.20088 5.34508 9.18862 5.35322 9.17424C5.51554 8.83635 5.71216 8.51604 5.93997 8.21834C6.18649 7.84327 6.56165 7.57127 6.99478 7.4536C7.89686 7.17805 8.86555 7.21522 9.74386 7.55908C10.4108 7.8422 11.0207 8.24429 11.5436 8.74573C11.8601 9.03581 12.2029 9.31269 12.5061 9.58298C12.5947 9.65705 12.6896 9.72324 12.7896 9.78077L12.638 9.87305C12.3084 10.0511 11.9787 10.2422 11.6491 10.4202C10.6945 10.9496 9.91369 11.7442 9.40106 12.7079C9.29047 12.8897 9.19773 13.0817 9.12416 13.2814C9.05164 13.3869 8.96595 13.4792 8.86706 13.5978C8.78247 13.5361 8.70106 13.4701 8.62314 13.4001C8.46492 13.255 8.31329 13.1034 8.16825 12.9518C7.90211 12.6777 7.55145 12.5012 7.17277 12.4507C6.73332 12.3836 6.28482 12.406 5.85426 12.5167C4.55634 12.8029 3.40625 13.5501 2.61731 14.6197C1.86571 15.6223 1.32319 16.7656 1.02193 17.9819C0.592066 19.6378 0.370602 21.3408 0.362671 23.0516C0.362671 24.0668 0.362668 25.0887 0.441778 26.1039C0.520889 27.1192 0.63956 28.029 0.817559 28.9849C1.16531 30.7272 1.65478 32.4381 2.28111 34.1007C2.63566 35.0575 3.077 35.9799 3.59962 36.8564C3.95014 37.4578 4.39536 37.9987 4.91813 38.4584C5.22739 38.7576 5.61315 38.9657 6.03302 39.0599C6.45288 39.1541 6.89059 39.1308 7.29803 38.9924C7.69092 38.8754 8.06749 38.7093 8.41877 38.4979C8.8341 38.2474 8.97914 38.2606 9.34833 38.5639C9.4644 38.658 9.57449 38.7593 9.67795 38.8671C9.85144 39.0451 10.0702 39.1723 10.3107 39.2351C10.5512 39.2978 10.8043 39.2937 11.0426 39.2231C11.4184 39.1111 11.7876 38.9792 12.1567 38.8473C12.4073 38.7551 12.6446 38.6364 12.8819 38.5309C13.0778 38.442 13.2936 38.4061 13.5076 38.427C13.7217 38.4478 13.9265 38.5246 14.1016 38.6496C14.2268 38.7287 14.3455 38.821 14.4641 38.9067C14.5828 38.9924 14.7674 39.1572 14.9322 39.2693C15.2525 39.5039 15.6431 39.6225 16.0398 39.6055C16.487 39.6014 16.9255 39.481 17.3121 39.2561C17.5121 39.1257 17.743 39.0503 17.9814 39.0376C18.2198 39.0248 18.4574 39.0752 18.6702 39.1836L19.2174 39.4077C19.5075 39.5198 19.7975 39.6385 20.0942 39.7373C20.9462 40.0068 21.85 40.0701 22.7312 39.9219C23.6674 39.7872 24.5653 39.4594 25.3682 38.9594C25.9418 38.5968 25.8956 38.4716 26.7263 38.8276C27.0434 38.9661 27.3856 39.0375 27.7317 39.0375C28.0777 39.0375 28.4199 38.9661 28.737 38.8276C29.4325 38.5252 30.067 38.0985 30.6093 37.5684C31.3786 36.8093 32.002 35.9155 32.4486 34.9314C32.9648 33.8468 33.3797 32.7169 33.688 31.556C34.001 30.3823 34.2323 29.1884 34.3803 27.9828C34.5187 26.8555 34.611 25.7282 34.6374 24.5942C34.5978 23.5878 34.5451 22.6165 34.4791 21.6803ZM25.7176 6.26035C25.8914 6.4596 26.0062 6.70325 26.0493 6.96407C26.0923 7.22488 26.062 7.49254 25.9616 7.73707C25.9531 7.75527 25.9396 7.77067 25.9226 7.78146C25.9057 7.79224 25.886 7.79795 25.866 7.79795C25.8459 7.79795 25.8262 7.79224 25.8093 7.78146C25.7924 7.77067 25.7789 7.75527 25.7704 7.73707C25.6385 7.54198 25.5653 7.31321 25.5594 7.07782C25.5431 6.79639 25.5974 6.51535 25.7176 6.26035ZM25.1375 19.874C25.577 18.9422 26.0165 18.0083 26.456 17.0721C26.5417 16.8941 26.6472 16.7227 26.7329 16.5513C26.7678 16.4854 26.82 16.4304 26.8839 16.392C26.9478 16.3537 27.0209 16.3335 27.0955 16.3338C27.4185 16.3338 27.4844 16.3338 27.5635 16.6964C27.6206 16.9539 27.6318 17.2195 27.5965 17.4809C27.5509 17.8382 27.4849 18.1925 27.3987 18.5423C27.0955 19.6894 26.779 20.8233 26.4626 21.9638C26.339 22.4756 26.1506 22.9697 25.9022 23.4339C25.8595 23.4939 25.8405 23.5675 25.8491 23.6406C25.8576 23.7137 25.893 23.781 25.9484 23.8295C26.2987 24.2194 26.673 24.5871 27.0691 24.9305C27.6599 25.4274 28.2808 25.8876 28.9282 26.3083L29.5018 26.6973C29.5651 26.7369 29.612 26.7981 29.6338 26.8695C29.6556 26.941 29.6509 27.018 29.6204 27.0862C29.5677 27.2444 29.4952 27.3038 29.3304 27.2774C29.0205 27.2313 28.7106 27.1785 28.4074 27.106C27.4606 26.8963 26.5453 26.5639 25.6847 26.1171C25.3805 25.9557 25.0855 25.7775 24.8013 25.5831C24.7156 25.5172 24.6365 25.4183 24.5112 25.4117C24.4116 25.4695 24.3278 25.551 24.2673 25.649C23.3791 26.7122 22.2327 27.5294 20.938 28.0224C20.4336 28.2227 19.916 28.388 19.3888 28.5168C19.2133 28.5596 19.0302 28.5596 18.8548 28.5168C18.8397 28.5112 18.826 28.5024 18.8146 28.491C18.8033 28.4797 18.7945 28.4659 18.7889 28.4509C18.783 28.4385 18.78 28.425 18.78 28.4113C18.78 28.3976 18.783 28.3841 18.7889 28.3718C18.9207 28.2663 19.046 28.1608 19.1778 28.0685C19.7192 27.6656 20.1989 27.1859 20.6018 26.6445C21.3072 25.7809 21.9203 24.8645 22.5796 23.9482C22.6389 23.8691 22.6916 23.7834 22.7444 23.7042C22.7605 23.675 22.769 23.6421 22.769 23.6087C22.769 23.5752 22.7605 23.5423 22.7444 23.5131L22.5466 23.1702C21.6205 21.5185 21.0333 19.6986 20.8194 17.8171C20.8194 17.6259 20.8194 17.4281 20.7864 17.2303C20.7757 17.1148 20.7956 16.9985 20.8443 16.8932C20.8929 16.7879 20.9684 16.6972 21.0633 16.6304C21.294 16.4458 21.3797 16.4458 21.505 16.7227C22.1642 18.1665 22.9554 19.518 23.7267 20.8892C23.8381 21.1326 23.9896 21.3554 24.175 21.5485C24.5434 21.0191 24.8654 20.4588 25.1375 19.874ZM6.3619 27.5477C7.02116 26.5588 7.64744 25.5172 8.22758 24.469C8.26007 24.4141 8.2772 24.3515 8.2772 24.2877C8.2772 24.2239 8.26007 24.1613 8.22758 24.1064C7.40284 22.1811 6.95524 20.1154 6.90907 18.0215C6.88056 17.4303 6.89156 16.8378 6.94203 16.2481C6.94212 16.1736 6.96322 16.1008 7.00287 16.0378C7.04252 15.9748 7.09911 15.9243 7.16617 15.8921C7.22551 15.8921 7.29804 15.8591 7.32441 15.9448C7.34671 16.0224 7.36216 16.1018 7.37056 16.1821C7.45811 16.8828 7.61941 17.5722 7.8518 18.239C8.28032 19.4652 8.7352 20.6783 9.24942 21.8649C9.30875 21.9968 9.32854 22.155 9.46699 22.2473C9.55928 22.2473 9.57905 22.1418 9.6186 22.0759C10.3833 20.8101 11.1217 19.5289 11.8337 18.2324C12.0381 17.8566 12.2622 17.4941 12.493 17.1315C12.5534 17.017 12.6563 16.9308 12.7795 16.8914C12.9028 16.8519 13.0366 16.8624 13.1522 16.9205C13.1854 16.9284 13.2145 16.9482 13.2339 16.9761C13.2534 17.0041 13.2619 17.0383 13.2577 17.0721C13.2492 17.185 13.2338 17.2973 13.2116 17.4083C13.1456 17.6984 13.0863 17.9885 12.994 18.272C12.7039 19.1224 12.4666 19.9992 12.1436 20.8431C11.8478 21.661 11.4885 22.4545 11.069 23.2164C10.8976 23.5131 10.7591 23.8295 10.6009 24.1394C10.5624 24.2018 10.542 24.2737 10.542 24.347C10.542 24.4204 10.5624 24.4923 10.6009 24.5547C11.2837 25.8136 12.1577 26.959 13.1918 27.9499L14.1477 28.8069C14.2018 28.8429 14.2443 28.8939 14.27 28.9535C14.2957 29.0132 14.3036 29.079 14.2927 29.1431C14.2919 29.1593 14.2878 29.1752 14.2807 29.1897C14.2735 29.2042 14.2634 29.2172 14.2511 29.2277C14.2387 29.2382 14.2243 29.246 14.2088 29.2508C14.1933 29.2555 14.177 29.257 14.1609 29.2552C14.1122 29.2488 14.0652 29.2332 14.0224 29.209C13.7522 29.0838 13.4819 28.9783 13.2182 28.8333C11.9583 28.1577 10.7925 27.3199 9.75046 26.3413L9.57905 26.1633C9.52631 26.1039 9.49335 26.0248 9.40106 26.0116C9.30876 25.9985 9.24285 26.1765 9.16374 26.2622C8.56025 26.9767 7.88171 27.6243 7.13982 28.1938C6.84569 28.434 6.51073 28.6194 6.15093 28.7409C6.05445 28.7881 5.94848 28.8127 5.84108 28.8127C5.73369 28.8127 5.62771 28.7881 5.53123 28.7409L6.3619 27.5477ZM32.0399 26.3083C31.9423 27.1239 31.7814 27.9306 31.5586 28.7212C31.3345 29.4991 31.1037 30.2638 30.8598 31.0352C30.5976 31.8309 30.2366 32.5906 29.7852 33.2964C29.6798 33.4612 29.5479 33.6129 29.4292 33.7645C29.4102 33.793 29.3831 33.8151 29.3514 33.828C29.3196 33.841 29.2848 33.8441 29.2512 33.837C29.3512 33.2381 29.3756 32.629 29.3238 32.024C29.3164 31.8932 29.2987 31.7632 29.271 31.6351C29.1985 31.3318 29.0732 31.2527 28.77 31.3516C28.3157 31.5054 27.8998 31.7549 27.5504 32.0834C27.4096 32.2244 27.3252 32.4119 27.313 32.6108C27.2603 32.98 27.2076 33.3557 27.1614 33.7315C27.1153 34.1073 27.0559 34.3908 27.0295 34.7072C27.029 34.8284 26.9867 34.9456 26.9099 35.0392C26.833 35.1329 26.7263 35.1972 26.6076 35.2214C25.8627 35.4324 25.1111 35.617 24.353 35.762C23.1927 35.9796 22.0192 36.1048 20.8457 36.2433H20.793C20.6282 36.2433 20.5754 36.2103 20.5952 36.0587C20.6494 35.6214 20.6649 35.1802 20.6414 34.7402C20.6305 34.4124 20.593 34.0862 20.5293 33.7645C20.513 33.6675 20.4865 33.5724 20.4502 33.481C20.4278 33.4013 20.3819 33.3303 20.3183 33.2774C20.2547 33.2244 20.1766 33.1919 20.0942 33.1843C19.553 33.1113 19.0024 33.208 18.5186 33.4612C18.4442 33.4968 18.3799 33.5504 18.3315 33.6172C18.2832 33.684 18.2523 33.7618 18.2417 33.8436C18.2172 33.9722 18.1996 34.1021 18.1889 34.2326C18.1494 34.8391 18.1164 35.4456 18.0835 36.0521C18.0835 36.1048 18.0835 36.151 18.0835 36.1971C18.0835 36.3949 18.0439 36.4411 17.8593 36.4476H16.6792C16.4155 36.4476 16.1584 36.4476 15.9343 36.4476C15.8926 36.4092 15.8634 36.3591 15.8504 36.3039C15.8375 36.2486 15.8414 36.1908 15.8618 36.1378C15.9091 35.5812 15.887 35.021 15.7958 34.4699C15.7233 33.9095 15.5717 33.8106 14.9981 33.8832C14.6222 33.9258 14.2565 34.0328 13.917 34.1996C13.7608 34.2568 13.6291 34.366 13.5439 34.5089C13.4586 34.6517 13.4251 34.8195 13.4489 34.9841C13.4489 35.1951 13.4818 35.406 13.495 35.6434C13.5082 35.8807 13.528 36.0323 13.5346 36.2301C13.5355 36.2503 13.5323 36.2704 13.525 36.2892C13.5177 36.308 13.5065 36.3251 13.4923 36.3394C13.478 36.3537 13.4609 36.3648 13.4421 36.3721C13.4233 36.3794 13.4031 36.3827 13.383 36.3817H13.1852L12.5259 36.3356C12.2483 36.2992 11.9687 36.2794 11.6887 36.2763C10.9701 36.2763 10.2449 36.2762 9.52632 36.1905C9.18351 36.1905 8.86706 36.1048 8.49788 36.0521C8.44075 36.0487 8.38706 36.0236 8.34783 35.982C8.30861 35.9403 8.28682 35.8852 8.28691 35.8279C8.28691 35.5774 8.24736 35.3335 8.22758 35.0896C8.18803 34.6808 8.15506 34.2721 8.1221 33.8634C8.12213 33.8138 8.1029 33.7661 8.06846 33.7305C8.03402 33.6948 7.98706 33.6739 7.93751 33.6722L6.51352 33.5601C6.48063 33.5544 6.44689 33.5559 6.41463 33.5644C6.38237 33.573 6.35235 33.5885 6.32665 33.6098C6.30095 33.6311 6.2802 33.6578 6.26579 33.6879C6.25139 33.718 6.24368 33.7509 6.24322 33.7843C6.21353 34.0956 6.21353 34.4091 6.24322 34.7204C6.24322 34.8852 6.24323 35.05 6.27619 35.2148C6.27388 35.2306 6.26778 35.2455 6.25845 35.2584C6.24911 35.2713 6.23681 35.2818 6.22258 35.2889C6.20834 35.296 6.19258 35.2996 6.17667 35.2993C6.16075 35.2991 6.14515 35.295 6.13116 35.2874C5.94165 35.1856 5.78243 35.0355 5.66967 34.8523C5.18774 34.1476 4.77279 33.3994 4.43027 32.6174C3.83585 31.1918 3.37891 29.7128 3.06562 28.2004C2.83994 27.2417 2.70529 26.2638 2.66347 25.2799C3.04583 26.005 3.48754 26.6709 3.81716 27.4093C4.11372 28.0694 4.47828 28.6969 4.90493 29.2815C5.5167 30.1613 6.32762 30.8842 7.27166 31.3912C7.59469 31.556 7.93092 31.6878 8.26714 31.8197C8.32967 31.836 8.38553 31.8715 8.4269 31.9211C8.46828 31.9708 8.4931 32.0321 8.49788 32.0966C8.55275 32.5204 8.64092 32.9392 8.76158 33.3492C8.79454 33.4546 8.82751 33.5667 8.86706 33.6722C8.89197 33.7607 8.9431 33.8395 9.01371 33.8984C9.08432 33.9572 9.17111 33.9933 9.26262 34.0018C9.83169 34.1061 10.4186 34.049 10.9569 33.837C11.1096 33.7761 11.2433 33.6756 11.3441 33.5458C11.4449 33.416 11.5093 33.2616 11.5305 33.0986C11.5634 32.8679 11.5898 32.6437 11.6227 32.4394C11.6557 32.235 11.6623 32.1823 11.9326 32.1757C12.9347 32.1757 13.9104 32.1757 14.9388 32.1361C16.6632 32.0835 18.3827 31.925 20.0876 31.6615C21.0105 31.523 21.9269 31.3121 22.8433 31.1406L22.9883 31.1077C23.0806 31.1077 23.1531 31.1077 23.1663 31.2198C23.2059 31.4307 23.2322 31.6417 23.2784 31.879C23.3245 32.1163 23.397 32.3866 23.463 32.6437C23.4801 32.7164 23.5229 32.7804 23.5835 32.824C23.644 32.8676 23.7183 32.8878 23.7926 32.8811H23.9442L25.4276 32.5383C25.4768 32.5259 25.5252 32.5105 25.5726 32.4921C25.7903 32.4395 25.9836 32.3141 26.1203 32.1367C26.257 31.9592 26.3289 31.7404 26.3242 31.5164C26.3242 31.1407 26.3901 30.7649 26.4098 30.3891C26.4081 30.324 26.4287 30.2604 26.4683 30.2088C26.5079 30.1571 26.5641 30.1207 26.6274 30.1056C27.2867 29.8749 27.9459 29.598 28.6052 29.387C29.5322 29.0755 30.3267 28.4598 30.8598 27.64C31.1148 27.2627 31.3354 26.8634 31.5191 26.4468C31.6246 26.2226 31.73 25.9985 31.8487 25.7875C31.8487 25.7413 31.8948 25.6622 32.0135 25.682C32.0455 25.8892 32.0543 26.0992 32.0399 26.3083Z" fill="#72ED2F"/>
</svg>
